<svg data-v-423bf9ae="" xmlns="http://www.w3.org/2000/svg" viewBox="0 0 139 107" class="iconLeft"><!----><!----><!----><g data-v-423bf9ae="" id="2039bd3c-6b6b-4be0-80a2-b58c58619a83" fill="black" transform="matrix(6.1224488604322,0,0,6.1224488604322,94.05230338257682,-1.031541494765122)"><path d="M2.45 13.75L1.34 13.75L1.34 3.95L2.65 3.95L4.12 9.81L4.12 9.81Q4.27 10.43 4.33 10.84L4.33 10.84L4.33 10.84Q4.37 10.43 4.54 9.81L4.54 9.81L6.02 3.95L7.28 3.95L7.28 13.75L6.17 13.75L6.17 7.60L6.17 7.60Q6.17 7.01 6.20 6.71L6.20 6.71L6.20 6.71Q6.17 6.86 5.99 7.60L5.99 7.60L4.41 13.75L4.21 13.75L2.63 7.60L2.63 7.60Q2.46 6.86 2.42 6.71L2.42 6.71L2.42 6.71Q2.45 7.32 2.45 7.60L2.45 7.60L2.45 13.75Z"></path></g><!----><g data-v-423bf9ae="" id="e4b33d41-9873-4f4c-8ae5-e8ca52ec7640" transform="matrix(1.0868111504448785,0,0,1.0868111504448785,-13.255261890115804,-0.23894260335429607)" stroke="none" fill="black"><g clip-rule="evenodd"><path d="M12.983 10.59l17.018 88.223-5.872-59.049 29.021-1.892-.054-9.883L64.549 1 53.622 18.977z"></path><path d="M59.389 54.548l5.16-53.541-8.74 39.716-19.612 1.045 1.57 20.462-7.766 36.583 12.057-39.899z"></path><path d="M62.8 67.182l.549-10.453-15.979 3.755-.032 11.797-17.337 26.532 21.68-27.616zM65.711 62.394l14.841-4.731 1.509-12.532-15.899 2.095zM72.07 44.502l10.988-1.417 1.581-10.278-8.079-.373L64.549 1l8.43 30.967z"></path><path d="M87.413 31.294l1.256-9.506-9.544-2.694L64.549 1l14.483 22.437-.422 7z"></path></g></g><!----></svg>